<?xml version="1.0" encoding="utf-8"?>
<!-- Generator: Adobe Illustrator 25.2.0, SVG Export Plug-In . SVG Version: 6.00 Build 0)  -->
<svg version="1.1" id="Layer_1" xmlns="http://www.w3.org/2000/svg" xmlns:xlink="http://www.w3.org/1999/xlink" x="0px" y="0px"
	 viewBox="0 0 65.62 65.62" style="enable-background:new 0 0 65.62 65.62;" xml:space="preserve">
<style type="text/css">
	.st0{fill:none;stroke:#FFFFFF;stroke-width:0.75;stroke-linecap:round;stroke-miterlimit:10;}
</style>
<g>
	<polyline class="st0" points="9.98,14.55 9.98,9.98 23.35,9.98 26.89,6.45 	"/>
	<polyline class="st0" points="3.78,36.06 0.53,32.81 9.98,23.35 9.98,18.36 	"/>
	<polyline class="st0" points="14.73,55.63 9.98,55.63 9.98,42.26 6.49,38.77 	"/>
	<polyline class="st0" points="36.13,61.76 32.81,65.09 23.35,55.63 18.48,55.63 	"/>
	<polyline class="st0" points="55.63,51.17 55.63,55.63 42.26,55.63 38.85,59.05 	"/>
	<polyline class="st0" points="61.79,29.51 65.09,32.81 55.63,42.26 55.63,47.09 	"/>
	<polyline class="st0" points="51.02,9.98 55.63,9.98 55.63,23.35 59.09,26.81 	"/>
	<polyline class="st0" points="29.58,3.76 32.81,0.53 42.26,9.98 47.21,9.98 	"/>
	<polyline class="st0" points="9.98,14.55 9.98,9.98 23.35,9.98 26.89,6.45 	"/>
	<polyline class="st0" points="3.78,36.06 0.53,32.81 9.98,23.35 9.98,18.36 	"/>
	<polyline class="st0" points="14.64,55.63 9.98,55.63 9.98,42.26 6.49,38.77 	"/>
	<polyline class="st0" points="36.13,61.76 32.81,65.09 23.35,55.63 18.48,55.63 	"/>
	<path class="st0" d="M36.13,61.76"/>
	<polyline class="st0" points="55.63,50.93 55.63,55.63 42.26,55.63 38.85,59.05 	"/>
	<polyline class="st0" points="61.79,29.51 65.09,32.81 55.63,42.26 55.63,47.09 	"/>
	<polyline class="st0" points="51.02,9.98 55.63,9.98 55.63,23.35 59.08,26.81 	"/>
	<polyline class="st0" points="29.58,3.76 32.81,0.53 42.26,9.98 47.21,9.98 	"/>
	<path class="st0" d="M23.35,9.98"/>
	<line class="st0" x1="36.72" y1="23.35" x2="25.68" y2="12.31"/>
	<line class="st0" x1="44.54" y1="31.17" x2="39.04" y2="25.67"/>
	<path class="st0" d="M44.54,31.17"/>
	<line class="st0" x1="55.63" y1="42.26" x2="46.18" y2="32.81"/>
	<path class="st0" d="M42.26,55.63"/>
	<line class="st0" x1="28.89" y1="42.26" x2="40.03" y2="53.4"/>
	<line class="st0" x1="21.02" y1="34.39" x2="26.58" y2="39.95"/>
	<line class="st0" x1="9.98" y1="23.35" x2="19.44" y2="32.81"/>
	<line class="st0" x1="32.81" y1="46.18" x2="23.35" y2="55.63"/>
	<line class="st0" x1="40.03" y1="38.96" x2="34.39" y2="44.6"/>
	<path class="st0" d="M40.03,38.96"/>
	<line class="st0" x1="53.32" y1="25.67" x2="42.26" y2="36.72"/>
	<line class="st0" x1="23.35" y1="28.89" x2="12.3" y2="39.95"/>
	<path class="st0" d="M23.35,28.89"/>
	<line class="st0" x1="31.23" y1="21.02" x2="25.68" y2="26.57"/>
	<path class="st0" d="M31.23,21.02"/>
	<line class="st0" x1="42.26" y1="9.98" x2="32.81" y2="19.44"/>
	<path class="st0" d="M9.98,23.35"/>
	<line class="st0" x1="28.89" y1="23.35" x2="13.15" y2="23.35"/>
	<line class="st0" x1="40.03" y1="23.35" x2="32.06" y2="23.35"/>
	<line class="st0" x1="55.63" y1="23.35" x2="42.26" y2="23.35"/>
	<line class="st0" x1="23.35" y1="42.26" x2="9.98" y2="42.26"/>
	<line class="st0" x1="33.45" y1="42.26" x2="25.68" y2="42.26"/>
	<path class="st0" d="M33.45,42.26"/>
	<line class="st0" x1="52.47" y1="42.26" x2="36.72" y2="42.26"/>
	<line class="st0" x1="42.26" y1="42.26" x2="42.26" y2="55.63"/>
	<path class="st0" d="M42.26,42.26"/>
	<line class="st0" x1="42.26" y1="32.06" x2="42.26" y2="39.95"/>
	<path class="st0" d="M42.26,32.06"/>
	<line class="st0" x1="42.26" y1="13.15" x2="42.26" y2="28.89"/>
	<line class="st0" x1="23.35" y1="36.72" x2="23.35" y2="52.36"/>
	<line class="st0" x1="23.35" y1="25.67" x2="23.35" y2="33.56"/>
	<line class="st0" x1="23.35" y1="9.98" x2="23.35" y2="23.35"/>
	<line class="st0" x1="23.35" y1="13.15" x2="22.37" y2="12.16"/>
	<line class="st0" x1="33.56" y1="23.35" x2="25.68" y2="15.47"/>
	<path class="st0" d="M33.56,23.35"/>
	<line class="st0" x1="42.96" y1="32.75" x2="35.88" y2="25.67"/>
	<path class="st0" d="M42.96,32.75"/>
	<line class="st0" x1="53.45" y1="43.24" x2="44.6" y2="34.39"/>
	<line class="st0" x1="21.02" y1="31.23" x2="12.1" y2="22.31"/>
	<line class="st0" x1="29.74" y1="39.95" x2="22.6" y2="32.81"/>
	<line class="st0" x1="40.03" y1="50.23" x2="32.06" y2="42.26"/>
	<line class="st0" x1="43.38" y1="53.58" x2="42.26" y2="52.47"/>
	<line class="st0" x1="40.03" y1="12.22" x2="40.03" y2="10.68"/>
	<line class="st0" x1="40.03" y1="23.35" x2="40.03" y2="15.39"/>
	<line class="st0" x1="40.03" y1="25.67" x2="40.03" y2="23.35"/>
	<line class="st0" x1="40.03" y1="26.66" x2="40.03" y2="25.67"/>
	<line class="st0" x1="40.03" y1="39.95" x2="40.03" y2="29.82"/>
	<line class="st0" x1="40.03" y1="54.85" x2="40.03" y2="42.26"/>
	<line class="st0" x1="52.36" y1="23.35" x2="53.53" y2="22.19"/>
	<line class="st0" x1="42.26" y1="33.45" x2="50.04" y2="25.67"/>
	<path class="st0" d="M42.26,33.45"/>
	<line class="st0" x1="32.75" y1="42.96" x2="40.03" y2="35.69"/>
	<line class="st0" x1="22.12" y1="53.59" x2="31.17" y2="44.54"/>
	<path class="st0" d="M43.84,11.57"/>
	<line class="st0" x1="34.39" y1="21.02" x2="43.38" y2="12.04"/>
	<line class="st0" x1="25.68" y1="29.73" x2="32.81" y2="22.6"/>
	<path class="st0" d="M25.68,29.73"/>
	<line class="st0" x1="15.46" y1="39.95" x2="23.35" y2="32.06"/>
	<line class="st0" x1="12.15" y1="43.26" x2="13.15" y2="42.26"/>
	<line class="st0" x1="53.32" y1="39.95" x2="55.01" y2="39.95"/>
	<line class="st0" x1="39.04" y1="39.95" x2="50.15" y2="39.95"/>
	<line class="st0" x1="25.68" y1="39.95" x2="35.77" y2="39.95"/>
	<line class="st0" x1="10.59" y1="39.95" x2="23.35" y2="39.95"/>
	<line class="st0" x1="42.26" y1="25.67" x2="55.04" y2="25.67"/>
	<line class="st0" x1="29.74" y1="25.67" x2="40.03" y2="25.67"/>
	<path class="st0" d="M29.74,25.67"/>
	<line class="st0" x1="15.46" y1="25.67" x2="26.58" y2="25.67"/>
	<line class="st0" x1="10.73" y1="25.67" x2="12.3" y2="25.67"/>
	<line class="st0" x1="25.68" y1="23.35" x2="25.68" y2="10.67"/>
	<line class="st0" x1="25.68" y1="35.88" x2="25.68" y2="25.67"/>
	<line class="st0" x1="25.68" y1="50.03" x2="25.68" y2="39.05"/>
	<line class="st0" x1="25.68" y1="54.9" x2="25.68" y2="53.31"/>
	<line class="st0" x1="43.38" y1="53.58" x2="53.55" y2="53.58"/>
	<path class="st0" d="M53.45,53.58"/>
	<line class="st0" x1="53.45" y1="43.24" x2="53.45" y2="50.09"/>
	<line class="st0" x1="53.53" y1="22.19" x2="53.53" y2="12.06"/>
	<line class="st0" x1="43.38" y1="12.04" x2="50.02" y2="12.04"/>
	<line class="st0" x1="22.12" y1="53.59" x2="15.65" y2="53.59"/>
	<line class="st0" x1="12.15" y1="53.59" x2="12.15" y2="43.26"/>
	<line class="st0" x1="12.1" y1="22.31" x2="12.1" y2="15.46"/>
	<line class="st0" x1="10.59" y1="39.95" x2="5.93" y2="35.29"/>
	<line class="st0" x1="3.52" y1="32.88" x2="10.73" y2="25.67"/>
	<path class="st0" d="M32.85,3.5"/>
	<line class="st0" x1="25.68" y1="10.67" x2="30.44" y2="5.9"/>
	<line class="st0" x1="32.85" y1="3.5" x2="40.03" y2="10.68"/>
	<line class="st0" x1="25.68" y1="54.93" x2="32.81" y2="62.06"/>
	<line class="st0" x1="35.25" y1="59.62" x2="40.03" y2="54.85"/>
	<line class="st0" x1="55.01" y1="39.95" x2="62.19" y2="32.76"/>
	<line class="st0" x1="55.04" y1="25.67" x2="59.63" y2="30.26"/>
	<line class="st0" x1="12.1" y1="12.16" x2="22.37" y2="12.16"/>
	<path class="st0" d="M14.54,9.98c5-4.01,11.34-6.4,18.24-6.4c0.05,0,0.1,0,0.15,0"/>
	<path class="st0" d="M3.77,29.57c0.74-6.77,3.79-12.84,8.34-17.41"/>
	<path class="st0" d="M9.98,50.99C5.99,46,3.6,39.66,3.6,32.77"/>
	<path class="st0" d="M29.49,61.77c-6.74-0.76-12.79-3.81-17.34-8.36"/>
	<path class="st0" d="M50.92,55.63c-4.98,3.96-11.28,6.32-18.14,6.32"/>
	<path class="st0" d="M61.78,36.12c-0.78,6.81-3.9,12.9-8.54,17.46"/>
	<path class="st0" d="M55.63,14.61c3.86,4.85,6.21,10.95,6.33,17.6c0,0.19,0.01,0.37,0.01,0.56"/>
	<path class="st0" d="M36.04,3.76c6.81,0.76,12.91,3.86,17.48,8.48"/>
	<path class="st0" d="M18.36,9.98c4.17-2.65,9.12-4.18,14.43-4.18c0.84,0,1.67,0.04,2.48,0.11"/>
	<path class="st0" d="M6.46,26.87c1.3-5.85,4.51-10.98,8.93-14.71"/>
	<path class="st0" d="M9.98,47.17c-2.64-4.17-4.17-9.11-4.17-14.41c0-0.77,0.03-1.53,0.09-2.28"/>
	<path class="st0" d="M26.79,59.06c-5.82-1.32-10.92-4.52-14.64-8.93"/>
	<path class="st0" d="M47.08,55.63c-4.15,2.6-9.05,4.1-14.3,4.1c-0.81,0-1.61-0.04-2.41-0.11"/>
	<path class="st0" d="M59.06,38.83c-1.35,5.88-4.63,11.03-9.13,14.75"/>
	<path class="st0" d="M59.63,30.26c0,0.04,0.01,0.08,0.01,0.12c0.07,0.79,0.1,1.59,0.1,2.39c0,0.86-0.04,1.72-0.12,2.56"/>
	<path class="st0" d="M55.63,18.45c2.19,3.48,3.6,7.5,4,11.81"/>
	<path class="st0" d="M38.74,6.46c5.89,1.33,11.05,4.59,14.78,9.07"/>
	<path class="st0" d="M31.57,32.77c0-0.67,0.54-1.22,1.22-1.22c0.67,0,1.22,0.54,1.22,1.22c0,0.67-0.54,1.22-1.22,1.22
		C32.11,33.98,31.57,33.44,31.57,32.77z"/>
</g>
</svg>
