<svg xmlns="http://www.w3.org/2000/svg" viewBox="0 0 100 100">
<rect x="2" y="2" width="96" height="96" rx="22" fill="#0a0a0c"/>
<g transform="translate(18,18) scale(0.4826)" fill="none" stroke="#f4e9cd" stroke-width="10" stroke-linecap="round" stroke-miterlimit="10">
<polygon points="84.24,109.84 84.23,109.84 66.13,127.67 48.31,109.84 48.32,109.76 48.23,23.1 66.16,4.97 84.18,23.1 "/>
<polygon points="22.77,84.42 22.77,84.41 4.93,66.31 22.77,48.49 22.85,48.49 109.51,48.41 127.64,66.34 109.51,84.36 "/>
<polygon points="48.04,109.67 48.04,109.67 22.63,109.48 22.64,84.27 22.7,84.21 83.91,22.88 109.41,22.74 109.33,48.3 "/>
<polygon points="22.55,48.23 22.56,48.22 22.74,22.81 47.96,22.82 48.01,22.88 109.35,84.1 109.49,109.6 83.93,109.52 "/>
<circle cx="66.2" cy="66.39" r="54.39"/>
</g>
</svg>
