<svg xmlns="http://www.w3.org/2000/svg" viewBox="1.8 11.3 64.7 65" style="color:#f4e9cd">
<rect x="1.8" y="11.3" width="64.7" height="65" fill="none"/>
<g fill="none" stroke="currentColor" stroke-width="1.6" stroke-linecap="round" stroke-linejoin="round">
<polyline points="11.29 25.54 11.29 20.98 24.66 20.98 28.19 17.45"/><polyline points="5.08 47.05 1.83 43.8 11.29 34.35 11.29 29.36"/><polyline points="16.03 66.63 11.29 66.63 11.29 53.26 7.79 49.76"/><polyline points="37.43 72.76 34.11 76.08 24.66 66.63 19.78 66.63"/><polyline points="56.93 62.16 56.93 66.63 43.56 66.63 40.15 70.04"/><polyline points="63.09 40.51 66.39 43.8 56.93 53.26 56.93 58.09"/><polyline points="52.32 20.98 56.93 20.98 56.93 34.35 60.39 37.8"/><polyline points="30.88 14.75 34.11 11.53 43.56 20.98 48.51 20.98"/><line x1="38.03" y1="34.35" x2="26.98" y2="23.3"/><line x1="56.93" y1="53.26" x2="47.48" y2="43.81"/><line x1="30.19" y1="53.26" x2="41.33" y2="64.39"/><line x1="11.29" y1="34.35" x2="20.74" y2="43.8"/><line x1="34.11" y1="57.18" x2="24.66" y2="66.63"/><line x1="54.62" y1="36.67" x2="43.56" y2="47.72"/><line x1="24.66" y1="39.89" x2="13.6" y2="50.94"/><line x1="43.56" y1="20.98" x2="34.11" y2="30.43"/><line x1="30.19" y1="34.35" x2="14.45" y2="34.35"/><line x1="56.93" y1="34.35" x2="43.56" y2="34.35"/><line x1="24.66" y1="53.26" x2="11.29" y2="53.26"/><line x1="53.77" y1="53.26" x2="38.03" y2="53.26"/><line x1="43.56" y1="53.26" x2="43.56" y2="66.63"/><line x1="43.56" y1="24.14" x2="43.56" y2="39.89"/><line x1="24.66" y1="47.72" x2="24.66" y2="63.35"/><line x1="24.66" y1="20.98" x2="24.66" y2="34.35"/><line x1="54.62" y1="50.94" x2="56.31" y2="50.94"/><line x1="26.98" y1="50.94" x2="37.07" y2="50.94"/><line x1="11.89" y1="50.94" x2="24.66" y2="50.94"/><line x1="43.56" y1="36.67" x2="56.35" y2="36.67"/><line x1="16.77" y1="36.67" x2="27.88" y2="36.67"/><line x1="26.98" y1="34.35" x2="26.98" y2="21.66"/><line x1="26.98" y1="61.03" x2="26.98" y2="50.05"/><path d="M15.84,21a29.1,29.1,0,0,1,18.24-6.4h.15"/><path d="M5.07,40.56a29.09,29.09,0,0,1,8.35-17.4"/><path d="M11.29,62A29,29,0,0,1,4.9,43.77"/><path d="M30.79,72.77a29.11,29.11,0,0,1-17.34-8.36"/><path d="M52.22,66.63A29,29,0,0,1,34.08,73"/><path d="M63.08,47.11a29.12,29.12,0,0,1-8.54,17.47"/><path d="M56.93,25.61a29,29,0,0,1,6.33,17.6c0,.18,0,.37,0,.56"/><path d="M37.34,14.76a29.13,29.13,0,0,1,17.49,8.48"/>
</g>
<path fill="currentColor" stroke="none" d="M32.87,43.77A1.22,1.22,0,1,1,34.08,45,1.21,1.21,0,0,1,32.87,43.77Z"/>
</svg>
