<?xml version="1.0" encoding="utf-8"?>
<!-- Generator: Adobe Illustrator 25.2.0, SVG Export Plug-In . SVG Version: 6.00 Build 0)  -->
<svg version="1.1" id="Layer_1" xmlns="http://www.w3.org/2000/svg" xmlns:xlink="http://www.w3.org/1999/xlink" x="0px" y="0px"
	 viewBox="0 0 474.96 70.23" style="enable-background:new 0 0 474.96 70.23;" xml:space="preserve">
<style type="text/css">
	.st0{stroke:#000000;stroke-width:3;stroke-linejoin:round;stroke-miterlimit:7;}
	.st1{fill:#FFFFFF;stroke:#FFFFFF;stroke-width:0.5;}
	.st2{fill:none;stroke:#FFFFFF;stroke-width:3.5;stroke-linecap:round;stroke-miterlimit:10;}
</style>
<g>
	<path class="st1" d="M90.89,42.08h-9.16l-2.38,6.2h-4.74l9.65-24.31h4.07l9.65,24.31h-4.71L90.89,42.08z M86.28,29.81
		c-0.85,2.54-1.61,4.67-2.27,6.38l-0.83,2.16h6.29l-0.83-2.16c-0.66-1.72-1.42-3.85-2.27-6.38H86.28z"/>
	<path class="st1" d="M99.98,39.83c0-1.54,0.21-2.91,0.64-4.12c0.42-1.21,1-2.22,1.74-3.03c0.73-0.82,1.57-1.43,2.52-1.84
		c0.94-0.41,1.93-0.61,2.94-0.61c0.47,0,0.92,0.04,1.34,0.13c0.42,0.09,0.82,0.2,1.2,0.35c0.38,0.15,0.73,0.31,1.05,0.49
		c0.33,0.18,0.63,0.37,0.91,0.56h0.04c-0.01-0.24-0.02-0.58-0.03-1.03c-0.01-0.44-0.01-0.92-0.01-1.44v-7.32h4.31v21.08
		c0,1.16,0.01,2.16,0.04,3c0.02,0.84,0.05,1.58,0.07,2.24h-3.89l-0.18-1.87h-0.07c-0.26,0.3-0.56,0.6-0.92,0.89
		c-0.36,0.29-0.75,0.54-1.18,0.76c-0.43,0.21-0.9,0.38-1.42,0.5c-0.51,0.12-1.07,0.18-1.68,0.18c-0.96,0-1.88-0.17-2.75-0.51
		c-0.88-0.34-1.67-0.86-2.36-1.57c-0.7-0.71-1.25-1.64-1.67-2.78C100.19,42.72,99.98,41.38,99.98,39.83z M108.47,45.29
		c0.42,0,0.83-0.05,1.21-0.16c0.38-0.11,0.74-0.25,1.08-0.44c0.34-0.18,0.64-0.38,0.9-0.6c0.26-0.22,0.48-0.43,0.66-0.64V35.1
		c-0.51-0.41-1.08-0.75-1.71-1.03c-0.63-0.27-1.3-0.41-2-0.41c-0.45,0-0.92,0.09-1.41,0.27c-0.49,0.18-0.94,0.49-1.34,0.93
		c-0.41,0.44-0.75,1.04-1.02,1.82c-0.27,0.78-0.41,1.76-0.41,2.96c0,1.77,0.34,3.15,1.03,4.14
		C106.14,44.78,107.14,45.28,108.47,45.29z"/>
	<path class="st1" d="M144.32,37.55c0-0.38-0.01-0.73-0.04-1.05c-0.02-0.33-0.07-0.61-0.13-0.85c-0.13-0.53-0.39-0.96-0.78-1.29
		c-0.39-0.33-0.93-0.5-1.64-0.51c-0.38,0-0.76,0.06-1.16,0.16c-0.4,0.11-0.8,0.26-1.19,0.46c-0.39,0.2-0.77,0.44-1.13,0.73
		c-0.36,0.28-0.68,0.6-0.97,0.95v12.12h-4.31V37.55c0-0.38-0.01-0.73-0.04-1.05c-0.03-0.33-0.07-0.61-0.13-0.85
		c-0.13-0.53-0.39-0.96-0.77-1.29c-0.38-0.33-0.93-0.5-1.65-0.51c-0.38,0-0.76,0.06-1.16,0.16c-0.4,0.11-0.8,0.26-1.19,0.46
		c-0.39,0.2-0.77,0.44-1.13,0.73c-0.36,0.28-0.68,0.6-0.97,0.95v12.12h-4.31V30.67h3.56l0.4,2.45h0.07
		c0.25-0.36,0.57-0.72,0.96-1.07c0.39-0.35,0.83-0.66,1.32-0.93c0.49-0.27,1.03-0.48,1.62-0.65c0.59-0.16,1.21-0.24,1.86-0.24
		c1.16,0,2.21,0.26,3.13,0.77c0.93,0.52,1.63,1.32,2.12,2.41h0.07c0.34-0.47,0.72-0.9,1.14-1.29c0.42-0.39,0.88-0.72,1.39-1
		c0.51-0.28,1.06-0.5,1.65-0.65c0.59-0.16,1.21-0.24,1.88-0.24c1.26,0.01,2.32,0.28,3.17,0.79c0.85,0.52,1.51,1.22,1.97,2.12
		c0.12,0.23,0.22,0.48,0.31,0.75c0.08,0.27,0.15,0.58,0.21,0.92c0.05,0.34,0.09,0.72,0.12,1.13c0.02,0.41,0.04,0.89,0.04,1.42v10.92
		h-4.31V37.55z"/>
	<path class="st1" d="M153.35,21.96h4.52v4.67h-4.52V21.96z M153.46,30.67h4.31v17.61h-4.31V30.67z"/>
	<path class="st1" d="M170.39,43.17c0-0.38-0.11-0.68-0.32-0.93c-0.21-0.24-0.49-0.44-0.84-0.61s-0.76-0.31-1.21-0.43
		c-0.45-0.12-0.93-0.24-1.43-0.36c-0.63-0.17-1.24-0.37-1.82-0.59c-0.58-0.22-1.09-0.52-1.54-0.88c-0.44-0.36-0.79-0.82-1.05-1.37
		c-0.26-0.55-0.39-1.23-0.39-2.03c0-0.98,0.18-1.83,0.53-2.55c0.35-0.72,0.83-1.32,1.43-1.79c0.6-0.47,1.3-0.82,2.09-1.05
		c0.79-0.23,1.63-0.34,2.52-0.34c1.08,0,2.09,0.09,3.03,0.26c0.94,0.18,1.8,0.4,2.56,0.68v3.51c-0.4-0.13-0.82-0.26-1.26-0.37
		c-0.44-0.11-0.89-0.22-1.34-0.3c-0.45-0.08-0.91-0.15-1.35-0.21c-0.45-0.05-0.87-0.08-1.27-0.08c-0.51,0-0.94,0.05-1.29,0.15
		c-0.35,0.1-0.64,0.23-0.85,0.39c-0.22,0.16-0.38,0.35-0.47,0.56c-0.1,0.21-0.15,0.43-0.15,0.66c0,0.4,0.11,0.73,0.32,0.98
		c0.21,0.26,0.51,0.46,0.88,0.62c0.38,0.16,0.77,0.29,1.18,0.39c0.41,0.1,0.81,0.2,1.2,0.3c0.6,0.15,1.21,0.32,1.82,0.53
		c0.61,0.21,1.15,0.5,1.64,0.86c0.48,0.37,0.88,0.85,1.19,1.44c0.31,0.59,0.46,1.33,0.46,2.24c0,0.99-0.19,1.86-0.56,2.6
		c-0.38,0.74-0.9,1.35-1.57,1.84c-0.67,0.49-1.48,0.85-2.42,1.09c-0.94,0.24-1.97,0.35-3.1,0.35c-1.12,0-2.12-0.09-3.01-0.26
		c-0.89-0.18-1.63-0.4-2.21-0.66v-3.47c0.94,0.35,1.82,0.59,2.62,0.72c0.8,0.13,1.54,0.19,2.24,0.19c0.53,0,1.03-0.04,1.49-0.12
		c0.46-0.08,0.86-0.2,1.19-0.37c0.33-0.17,0.6-0.38,0.79-0.64C170.3,43.84,170.39,43.53,170.39,43.17z"/>
	<path class="st1" d="M186.17,43.17c0-0.38-0.11-0.68-0.32-0.93c-0.21-0.24-0.49-0.44-0.84-0.61s-0.76-0.31-1.21-0.43
		c-0.45-0.12-0.93-0.24-1.43-0.36c-0.63-0.17-1.24-0.37-1.82-0.59c-0.58-0.22-1.09-0.52-1.54-0.88c-0.44-0.36-0.79-0.82-1.05-1.37
		c-0.26-0.55-0.39-1.23-0.39-2.03c0-0.98,0.18-1.83,0.53-2.55c0.35-0.72,0.83-1.32,1.43-1.79c0.6-0.47,1.3-0.82,2.09-1.05
		c0.79-0.23,1.63-0.34,2.52-0.34c1.08,0,2.09,0.09,3.03,0.26c0.94,0.18,1.8,0.4,2.56,0.68v3.51c-0.4-0.13-0.82-0.26-1.26-0.37
		c-0.44-0.11-0.89-0.22-1.34-0.3c-0.45-0.08-0.91-0.15-1.35-0.21c-0.45-0.05-0.87-0.08-1.27-0.08c-0.51,0-0.94,0.05-1.29,0.15
		c-0.35,0.1-0.64,0.23-0.85,0.39c-0.22,0.16-0.38,0.35-0.47,0.56c-0.1,0.21-0.15,0.43-0.15,0.66c0,0.4,0.11,0.73,0.32,0.98
		c0.21,0.26,0.51,0.46,0.88,0.62c0.38,0.16,0.77,0.29,1.18,0.39c0.41,0.1,0.81,0.2,1.2,0.3c0.6,0.15,1.21,0.32,1.82,0.53
		c0.61,0.21,1.15,0.5,1.64,0.86c0.48,0.37,0.88,0.85,1.19,1.44c0.31,0.59,0.46,1.33,0.46,2.24c0,0.99-0.19,1.86-0.56,2.6
		c-0.38,0.74-0.9,1.35-1.57,1.84c-0.67,0.49-1.48,0.85-2.42,1.09c-0.94,0.24-1.97,0.35-3.1,0.35c-1.12,0-2.12-0.09-3.01-0.26
		c-0.89-0.18-1.63-0.4-2.21-0.66v-3.47c0.94,0.35,1.82,0.59,2.62,0.72c0.8,0.13,1.54,0.19,2.24,0.19c0.53,0,1.03-0.04,1.49-0.12
		c0.46-0.08,0.86-0.2,1.19-0.37c0.33-0.17,0.6-0.38,0.79-0.64C186.07,43.84,186.17,43.53,186.17,43.17z"/>
	<path class="st1" d="M194.14,21.96h4.52v4.67h-4.52V21.96z M194.25,30.67h4.31v17.61h-4.31V30.67z"/>
	<path class="st1" d="M220.31,39.17c0,1.59-0.23,2.99-0.69,4.22c-0.46,1.22-1.06,2.23-1.81,3.02c-0.75,0.79-1.58,1.37-2.52,1.75
		c-0.93,0.38-1.87,0.57-2.82,0.57c-0.67,0-1.27-0.08-1.8-0.24c-0.53-0.16-1-0.37-1.4-0.61c-0.4-0.24-0.74-0.5-1.01-0.76
		c-0.27-0.27-0.49-0.5-0.65-0.71h-0.07l-0.42,1.87h-3.56c0.02-0.52,0.05-1.17,0.06-1.93c0.02-0.77,0.03-1.5,0.03-2.19V21.96h4.3
		v7.32c0,0.52,0,1-0.01,1.44c-0.01,0.44-0.02,0.78-0.03,1.03h0.04c0.28-0.19,0.58-0.38,0.91-0.56c0.33-0.18,0.68-0.34,1.07-0.49
		c0.39-0.15,0.81-0.26,1.25-0.35c0.45-0.08,0.92-0.13,1.42-0.13c0.98,0,1.93,0.18,2.86,0.54c0.93,0.36,1.75,0.9,2.47,1.64
		c0.72,0.73,1.29,1.67,1.72,2.82C220.1,36.36,220.31,37.68,220.31,39.17z M215.86,39.39c0-1.1-0.13-2.05-0.4-2.84
		c-0.27-0.79-0.61-1.4-1.05-1.82c-0.43-0.42-0.88-0.7-1.34-0.84c-0.47-0.15-0.93-0.22-1.39-0.22c-0.63,0-1.27,0.13-1.93,0.38
		c-0.65,0.25-1.25,0.59-1.78,1.02v8.43c0.17,0.19,0.38,0.4,0.63,0.61c0.25,0.21,0.53,0.41,0.83,0.58s0.65,0.32,1.01,0.44
		c0.36,0.11,0.75,0.17,1.16,0.17c0.7,0,1.32-0.14,1.84-0.43c0.53-0.28,0.97-0.69,1.33-1.21c0.36-0.52,0.63-1.14,0.81-1.86
		C215.77,41.08,215.86,40.27,215.86,39.39z"/>
	<path class="st1" d="M224.31,48.27V21.96h4.31v26.31H224.31z"/>
	<path class="st1" d="M242.59,45.26c0.84,0,1.71-0.08,2.62-0.26c0.91-0.17,1.83-0.41,2.76-0.73v3.43c-0.56,0.24-1.41,0.47-2.56,0.69
		c-1.15,0.22-2.34,0.33-3.58,0.33c-1.25,0-2.43-0.16-3.55-0.48c-1.12-0.32-2.1-0.84-2.93-1.55c-0.84-0.71-1.5-1.64-1.99-2.78
		c-0.49-1.14-0.74-2.52-0.74-4.14c0-1.6,0.23-3,0.69-4.2c0.46-1.2,1.08-2.19,1.85-2.98c0.78-0.79,1.66-1.38,2.66-1.77
		c1-0.39,2.03-0.59,3.1-0.59c1.11,0,2.14,0.17,3.08,0.51c0.94,0.34,1.75,0.87,2.43,1.6c0.68,0.73,1.22,1.66,1.6,2.81
		c0.38,1.15,0.57,2.5,0.57,4.06c-0.01,0.61-0.03,1.12-0.05,1.54h-11.54c0.06,0.81,0.24,1.51,0.55,2.08c0.3,0.57,0.7,1.04,1.19,1.4
		c0.49,0.36,1.06,0.62,1.72,0.78C241.12,45.18,241.83,45.26,242.59,45.26z M240.86,33.59c-0.54,0-1.03,0.1-1.45,0.3
		c-0.42,0.2-0.79,0.47-1.1,0.82c-0.31,0.35-0.55,0.75-0.73,1.21c-0.18,0.46-0.3,0.95-0.36,1.47h6.92c0-0.52-0.07-1.01-0.21-1.47
		c-0.14-0.46-0.35-0.86-0.62-1.21c-0.27-0.34-0.61-0.62-1.02-0.82C241.88,33.69,241.41,33.59,240.86,33.59z"/>
</g>
<g>
	<path class="st1" d="M268.56,49.13h-4.58V27.96h-8.07v-3.83h20.7v3.83h-8.05V49.13z"/>
	<path class="st1" d="M286.49,46.03c0.86,0,1.76-0.09,2.69-0.26c0.93-0.17,1.88-0.42,2.84-0.75v3.53c-0.57,0.25-1.45,0.48-2.64,0.71
		s-2.41,0.34-3.68,0.34c-1.28,0-2.5-0.17-3.65-0.5c-1.15-0.33-2.16-0.86-3.02-1.6c-0.86-0.73-1.54-1.69-2.05-2.86
		s-0.76-2.59-0.76-4.26c0-1.65,0.24-3.08,0.71-4.32c0.47-1.23,1.11-2.25,1.91-3.06c0.8-0.81,1.71-1.42,2.74-1.82
		c1.03-0.4,2.09-0.61,3.19-0.61c1.14,0,2.2,0.18,3.17,0.52c0.96,0.35,1.8,0.9,2.5,1.65c0.7,0.75,1.25,1.71,1.64,2.89
		c0.39,1.18,0.59,2.57,0.59,4.18c-0.01,0.62-0.03,1.15-0.06,1.59h-11.86c0.06,0.84,0.25,1.55,0.56,2.14
		c0.31,0.59,0.72,1.07,1.22,1.44c0.51,0.37,1.09,0.64,1.77,0.8C284.98,45.94,285.71,46.03,286.49,46.03z M284.72,34.03
		c-0.56,0-1.06,0.1-1.49,0.31c-0.44,0.21-0.81,0.49-1.13,0.84c-0.32,0.36-0.57,0.77-0.76,1.24c-0.19,0.47-0.31,0.98-0.38,1.51h7.12
		c0-0.54-0.07-1.04-0.21-1.51c-0.14-0.47-0.36-0.89-0.64-1.24c-0.28-0.35-0.63-0.63-1.05-0.84
		C285.77,34.14,285.28,34.03,284.72,34.03z"/>
	<path class="st1" d="M309.83,48.74c-0.56,0.24-1.25,0.44-2.06,0.61c-0.81,0.17-1.66,0.25-2.56,0.25c-1.31,0-2.53-0.19-3.66-0.56
		c-1.13-0.37-2.12-0.94-2.97-1.7c-0.85-0.76-1.51-1.72-2-2.89c-0.49-1.17-0.73-2.53-0.73-4.08c0-1.74,0.28-3.24,0.84-4.48
		c0.56-1.25,1.29-2.26,2.18-3.04c0.89-0.78,1.89-1.35,3.01-1.72c1.12-0.37,2.21-0.55,3.3-0.55c0.81,0,1.59,0.07,2.34,0.22
		c0.75,0.14,1.43,0.34,2.04,0.59v3.6c-0.55-0.24-1.13-0.43-1.75-0.57c-0.62-0.14-1.28-0.21-1.99-0.21c-0.71,0-1.39,0.11-2.04,0.33
		c-0.65,0.22-1.22,0.56-1.72,1.04c-0.5,0.47-0.89,1.1-1.19,1.88c-0.29,0.78-0.44,1.71-0.44,2.81c0,0.8,0.11,1.55,0.34,2.25
		s0.55,1.3,0.98,1.8c0.43,0.5,0.98,0.9,1.64,1.21c0.67,0.31,1.45,0.46,2.36,0.46c0.81,0,1.54-0.08,2.2-0.24
		c0.66-0.16,1.28-0.36,1.87-0.6V48.74z"/>
	<path class="st1" d="M318.27,29.46c0,0.93-0.02,1.7-0.05,2.31c-0.03,0.6-0.09,1.15-0.16,1.63h0.07c0.26-0.35,0.58-0.7,0.96-1.05
		c0.38-0.35,0.8-0.65,1.25-0.91c0.46-0.26,0.97-0.46,1.55-0.63c0.58-0.16,1.22-0.24,1.91-0.24c0.6,0,1.18,0.06,1.75,0.18
		c0.57,0.12,1.09,0.3,1.59,0.55c0.49,0.25,0.94,0.57,1.34,0.97c0.4,0.4,0.75,0.87,1.02,1.42c0.24,0.47,0.41,1.01,0.52,1.61
		c0.11,0.6,0.17,1.33,0.17,2.19v11.64h-4.43V38.09c0-0.56-0.02-1.02-0.07-1.37c-0.05-0.35-0.14-0.66-0.26-0.92
		c-0.26-0.55-0.64-0.93-1.12-1.16c-0.48-0.22-1.04-0.34-1.66-0.34c-0.86,0.01-1.65,0.22-2.38,0.62c-0.73,0.4-1.4,0.98-2.01,1.76
		v12.46h-4.43V22.08h4.43V29.46z"/>
	<path class="st1" d="M339.14,33.55h0.07c0.26-0.37,0.59-0.74,0.99-1.1c0.4-0.36,0.85-0.68,1.36-0.95c0.51-0.27,1.07-0.5,1.69-0.66
		s1.27-0.25,1.97-0.25c0.66,0,1.3,0.07,1.91,0.22c0.62,0.15,1.18,0.38,1.69,0.7c0.51,0.32,0.96,0.73,1.35,1.23
		c0.39,0.51,0.7,1.11,0.92,1.8c0.12,0.39,0.21,0.81,0.25,1.26c0.04,0.46,0.07,0.98,0.07,1.58v11.75h-4.43V38.07
		c0-0.49-0.02-0.9-0.06-1.25c-0.04-0.35-0.11-0.65-0.2-0.92c-0.22-0.57-0.56-0.98-1.02-1.23c-0.46-0.25-1.01-0.37-1.65-0.37
		c-0.86,0-1.69,0.2-2.48,0.61c-0.79,0.4-1.49,0.99-2.1,1.76v12.46h-4.43v-18.1h3.66L339.14,33.55z"/>
	<path class="st1" d="M373.56,40.09c0,1.42-0.21,2.72-0.64,3.89c-0.42,1.17-1.03,2.17-1.82,3.01c-0.79,0.84-1.75,1.48-2.87,1.93
		c-1.12,0.46-2.37,0.68-3.76,0.68c-1.42,0-2.69-0.23-3.82-0.68c-1.13-0.45-2.08-1.1-2.87-1.93c-0.79-0.83-1.39-1.84-1.8-3.01
		c-0.42-1.17-0.63-2.47-0.63-3.89c0-1.42,0.21-2.72,0.64-3.89c0.42-1.17,1.03-2.17,1.82-3.01c0.79-0.83,1.75-1.48,2.87-1.93
		c1.12-0.46,2.37-0.68,3.75-0.68c1.42,0,2.69,0.23,3.82,0.68c1.13,0.45,2.08,1.1,2.87,1.93c0.79,0.83,1.38,1.84,1.8,3.01
		C373.35,37.37,373.56,38.67,373.56,40.09z M368.98,40.09c0-0.96-0.11-1.8-0.34-2.54s-0.54-1.35-0.93-1.85
		c-0.4-0.5-0.88-0.87-1.44-1.12c-0.56-0.25-1.17-0.37-1.83-0.37c-0.65,0-1.25,0.12-1.8,0.37c-0.56,0.25-1.03,0.62-1.43,1.12
		c-0.4,0.5-0.71,1.12-0.93,1.85s-0.34,1.58-0.34,2.54c0,0.96,0.11,1.81,0.34,2.54s0.54,1.35,0.94,1.84c0.4,0.49,0.88,0.87,1.44,1.12
		c0.55,0.26,1.16,0.38,1.82,0.38c0.66,0,1.26-0.13,1.81-0.38c0.55-0.26,1.02-0.63,1.42-1.12c0.4-0.49,0.71-1.11,0.93-1.84
		S368.98,41.05,368.98,40.09z"/>
	<path class="st1" d="M377.67,49.13V22.08h4.43v27.05H377.67z"/>
	<path class="st1" d="M404.41,40.09c0,1.42-0.21,2.72-0.64,3.89c-0.42,1.17-1.03,2.17-1.82,3.01c-0.79,0.84-1.75,1.48-2.87,1.93
		c-1.12,0.46-2.37,0.68-3.76,0.68c-1.42,0-2.69-0.23-3.82-0.68c-1.13-0.45-2.08-1.1-2.87-1.93c-0.79-0.83-1.39-1.84-1.8-3.01
		c-0.42-1.17-0.63-2.47-0.63-3.89c0-1.42,0.21-2.72,0.64-3.89c0.42-1.17,1.03-2.17,1.82-3.01c0.79-0.83,1.75-1.48,2.87-1.93
		c1.12-0.46,2.37-0.68,3.75-0.68c1.42,0,2.69,0.23,3.82,0.68c1.13,0.45,2.08,1.1,2.87,1.93c0.79,0.83,1.38,1.84,1.8,3.01
		C404.2,37.37,404.41,38.67,404.41,40.09z M399.83,40.09c0-0.96-0.11-1.8-0.34-2.54s-0.54-1.35-0.93-1.85
		c-0.4-0.5-0.88-0.87-1.44-1.12c-0.56-0.25-1.17-0.37-1.83-0.37c-0.65,0-1.25,0.12-1.8,0.37c-0.56,0.25-1.03,0.62-1.43,1.12
		c-0.4,0.5-0.71,1.12-0.93,1.85s-0.34,1.58-0.34,2.54c0,0.96,0.11,1.81,0.34,2.54s0.54,1.35,0.94,1.84c0.4,0.49,0.88,0.87,1.44,1.12
		s1.16,0.38,1.82,0.38s1.26-0.13,1.81-0.38c0.55-0.26,1.02-0.63,1.42-1.12c0.4-0.49,0.71-1.11,0.93-1.84S399.83,41.05,399.83,40.09z
		"/>
	<path class="st1" d="M420.08,49.6c0-0.25,0-0.56,0.01-0.93c0.01-0.37,0.02-0.67,0.05-0.92h-0.04c-0.27,0.22-0.59,0.45-0.94,0.66
		c-0.36,0.22-0.75,0.42-1.17,0.6c-0.42,0.18-0.89,0.32-1.4,0.43c-0.51,0.11-1.03,0.16-1.57,0.16c-0.96,0-1.9-0.17-2.81-0.51
		c-0.92-0.34-1.73-0.88-2.44-1.63c-0.71-0.74-1.28-1.69-1.72-2.85c-0.44-1.16-0.65-2.55-0.65-4.18c0-1.63,0.22-3.06,0.66-4.29
		c0.44-1.23,1.03-2.25,1.77-3.07c0.73-0.82,1.58-1.44,2.53-1.86c0.95-0.42,1.93-0.63,2.94-0.63c1.11,0,2.09,0.23,2.95,0.7
		c0.86,0.47,1.56,1.06,2.11,1.79h0.07l0.19-2.04h3.89v18.44c0,1.06-0.09,1.97-0.26,2.73c-0.18,0.76-0.43,1.43-0.77,2.02
		c-0.4,0.69-0.91,1.28-1.52,1.79c-0.62,0.51-1.32,0.93-2.11,1.27c-0.79,0.34-1.66,0.59-2.61,0.76c-0.95,0.17-1.95,0.25-3.01,0.25
		c-0.6,0-1.18-0.02-1.76-0.07c-0.57-0.04-1.11-0.11-1.62-0.19c-0.51-0.08-0.97-0.18-1.38-0.28c-0.42-0.11-0.77-0.22-1.06-0.33v-3.6
		c0.82,0.27,1.69,0.48,2.59,0.63c0.9,0.14,1.85,0.22,2.85,0.22c1.98,0,3.51-0.38,4.59-1.15c1.08-0.77,1.63-1.93,1.63-3.48V49.6z
		 M416.12,46.07c0.45,0,0.87-0.06,1.27-0.17c0.4-0.11,0.77-0.26,1.1-0.43c0.34-0.17,0.64-0.37,0.91-0.58
		c0.27-0.21,0.5-0.42,0.68-0.64v-8.09c-0.47-0.56-1.06-1.03-1.76-1.4c-0.7-0.37-1.44-0.57-2.22-0.58c-0.27,0-0.56,0.03-0.87,0.1
		c-0.31,0.07-0.61,0.19-0.92,0.36c-0.31,0.17-0.61,0.41-0.89,0.7c-0.28,0.29-0.53,0.66-0.74,1.11c-0.21,0.45-0.38,0.98-0.51,1.61
		c-0.13,0.62-0.2,1.34-0.2,2.17c0,0.91,0.09,1.72,0.26,2.44c0.17,0.72,0.44,1.33,0.79,1.83c0.35,0.5,0.78,0.89,1.3,1.16
		C414.83,45.93,415.43,46.07,416.12,46.07z"/>
	<path class="st1" d="M429.37,22.08h4.65v4.8h-4.65V22.08z M429.48,31.03h4.43v18.1h-4.43V31.03z"/>
	<path class="st1" d="M448.2,46.03c0.86,0,1.76-0.09,2.69-0.26c0.93-0.17,1.88-0.42,2.84-0.75v3.53c-0.57,0.25-1.45,0.48-2.64,0.71
		s-2.41,0.34-3.68,0.34c-1.28,0-2.5-0.17-3.65-0.5c-1.15-0.33-2.16-0.86-3.02-1.6c-0.86-0.73-1.54-1.69-2.05-2.86
		c-0.5-1.17-0.76-2.59-0.76-4.26c0-1.65,0.24-3.08,0.71-4.32c0.47-1.23,1.11-2.25,1.91-3.06c0.8-0.81,1.71-1.42,2.74-1.82
		c1.03-0.4,2.09-0.61,3.19-0.61c1.14,0,2.2,0.18,3.17,0.52c0.96,0.35,1.8,0.9,2.5,1.65c0.7,0.75,1.25,1.71,1.64,2.89
		c0.39,1.18,0.59,2.57,0.59,4.18c-0.01,0.62-0.03,1.15-0.06,1.59h-11.86c0.06,0.84,0.25,1.55,0.56,2.14
		c0.31,0.59,0.72,1.07,1.22,1.44c0.51,0.37,1.09,0.64,1.77,0.8C446.69,45.94,447.41,46.03,448.2,46.03z M446.42,34.03
		c-0.56,0-1.06,0.1-1.49,0.31c-0.44,0.21-0.81,0.49-1.13,0.84c-0.32,0.36-0.57,0.77-0.76,1.24c-0.19,0.47-0.31,0.98-0.38,1.51h7.12
		c0-0.54-0.07-1.04-0.21-1.51c-0.14-0.47-0.36-0.89-0.64-1.24c-0.28-0.35-0.63-0.63-1.05-0.84
		C447.47,34.14,446.98,34.03,446.42,34.03z"/>
	<path class="st1" d="M466.51,43.88c0-0.39-0.11-0.7-0.33-0.95c-0.22-0.25-0.51-0.46-0.87-0.63s-0.78-0.31-1.24-0.44
		c-0.47-0.12-0.96-0.25-1.47-0.37c-0.65-0.17-1.27-0.38-1.87-0.61c-0.6-0.23-1.12-0.53-1.58-0.91c-0.46-0.37-0.82-0.84-1.08-1.41
		c-0.27-0.57-0.4-1.26-0.4-2.08c0-1.01,0.18-1.88,0.54-2.62c0.36-0.74,0.85-1.35,1.47-1.84c0.62-0.48,1.33-0.85,2.15-1.08
		c0.82-0.24,1.68-0.35,2.59-0.35c1.11,0,2.15,0.09,3.12,0.27c0.97,0.18,1.85,0.42,2.63,0.7v3.61c-0.41-0.14-0.84-0.26-1.3-0.38
		c-0.46-0.12-0.92-0.22-1.38-0.31c-0.47-0.09-0.93-0.16-1.39-0.22c-0.46-0.06-0.9-0.08-1.31-0.08c-0.52,0-0.97,0.05-1.33,0.15
		c-0.36,0.1-0.65,0.23-0.88,0.4c-0.22,0.17-0.39,0.36-0.49,0.58c-0.1,0.22-0.15,0.44-0.15,0.68c0,0.41,0.11,0.75,0.33,1.01
		c0.22,0.26,0.52,0.47,0.91,0.64c0.39,0.16,0.79,0.3,1.21,0.4c0.42,0.11,0.83,0.21,1.23,0.31c0.62,0.15,1.25,0.33,1.87,0.54
		c0.62,0.21,1.18,0.51,1.68,0.89c0.5,0.38,0.91,0.87,1.22,1.48c0.32,0.6,0.48,1.37,0.48,2.31c0,1.02-0.19,1.91-0.58,2.67
		c-0.39,0.76-0.92,1.39-1.62,1.9c-0.69,0.5-1.52,0.88-2.48,1.12c-0.97,0.24-2.03,0.36-3.19,0.36c-1.15,0-2.18-0.09-3.09-0.27
		c-0.92-0.18-1.67-0.41-2.27-0.68v-3.57c0.97,0.36,1.87,0.61,2.69,0.74c0.82,0.13,1.59,0.2,2.3,0.2c0.55,0,1.06-0.04,1.53-0.12
		c0.47-0.08,0.88-0.21,1.22-0.38c0.34-0.17,0.61-0.39,0.81-0.66C466.41,44.58,466.51,44.25,466.51,43.88z"/>
</g>
<g>
	<polygon class="st2" points="43.93,56.51 43.93,56.51 35.09,65.22 26.39,56.51 26.39,56.47 26.35,14.15 35.1,5.3 43.9,14.15 	"/>
	<polygon class="st2" points="13.91,44.09 13.91,44.09 5.2,35.25 13.91,26.55 13.95,26.55 56.27,26.51 65.12,35.26 56.27,44.06 	"/>
	<polygon class="st2" points="26.26,56.43 26.25,56.42 13.84,56.33 13.85,44.02 13.88,43.99 43.77,14.04 56.22,13.97 56.19,26.45 	
		"/>
	<polygon class="st2" points="13.81,26.42 13.81,26.42 13.9,14.01 26.21,14.02 26.24,14.04 56.19,43.94 56.26,56.39 43.78,56.35 	
		"/>
	<circle class="st2" cx="35.14" cy="35.33" r="1.06"/>
	<circle class="st2" cx="35.12" cy="35.29" r="26.56"/>
</g>
</svg>
